Coordinates
version=1
nRows=29
nColumns=24
inDegrees=yes

Units are S.I. units (second, meters, Newtons, ...)
Angles are in degrees.

endheader
time	pelvis_tilt	pelvis_list	pelvis_rotation	pelvis_tx	pelvis_ty	pelvis_tz	hip_flexion_r	hip_adduction_r	hip_rotation_r	knee_angle_r	ankle_angle_r	subtalar_angle_r	mtp_angle_r	hip_flexion_l	hip_adduction_l	hip_rotation_l	knee_angle_l	ankle_angle_l	subtalar_angle_l	mtp_angle_l	lumbar_extension	lumbar_bending	lumbar_rotation
      6.60000000	     36.71195906	      1.74347570	      4.91711936	      1.58631151	      0.67462533	     -0.28267154	    -15.25129389	     -3.53886836	    -15.94192765	    -65.31712124	      9.56660639	     -7.96191225	      0.00000000	    -29.71531927	      1.48045068	     -1.73643679	    -22.75575908	     21.63606060	      9.93313962	      0.00000000	    -63.15176844	      1.67922266	     -2.36760779
      6.60500000	     36.69940212	      1.82603964	      5.28050409	      1.59096038	      0.67523153	     -0.28237520	    -14.77786403	     -3.38649653	    -16.11020955	    -64.11330174	     10.12502848	     -7.44455267	      0.00000000	    -30.38203692	      1.26626615	     -1.59054902	    -22.26133897	     21.67570922	     10.06171813	      0.00000000	    -63.23847919	      1.83176289	     -2.55756945
      6.61000000	     36.57619827	      1.82994430	      5.52612923	      1.59551399	      0.67571550	     -0.28200274	    -14.13935486	     -3.18001735	    -16.08250908	    -62.85797337	     10.57682844	     -7.00851127	      0.00000000	    -30.89472552	      1.05393194	     -1.56347666	    -21.81483938	     21.67067533	     10.13422851	      0.00000000	    -63.24504401	      1.96667801	     -2.69941386
      6.61500000	     36.50456294	      1.89614555	      5.80479432	      1.60014354	      0.67618440	     -0.28170105	    -13.64967368	     -3.04602499	    -16.13209558	    -61.47019800	     11.04688083	     -6.52564241	      0.00000000	    -31.49781659	      0.87855086	     -1.49277180	    -21.31661772	     21.69564882	     10.25823426	      0.00000000	    -63.28402343	      2.09410723	     -2.83965836
      6.62000000	     36.42441596	      1.96096226	      6.06606165	      1.60474674	      0.67661392	     -0.28133484	    -13.19203224	     -2.90365012	    -16.15450920	    -59.96049488	     11.44236159	     -6.13734468	      0.00000000	    -32.07928066	      0.70510007	     -1.45131989	    -20.83682673	     21.67904152	     10.32867274	      0.00000000	    -63.32260214	      2.19769880	     -3.00080338
      6.62500000	     36.41585857	      2.07445847	      6.37147001	      1.60939707	      0.67704686	     -0.28101480	    -12.91147504	     -2.80567752	    -16.26961000	    -58.29691409	     11.82014061	     -5.79317030	      0.00000000	    -32.75645265	      0.53785716	     -1.40030400	    -20.33320340	     21.67316709	     10.41310263	      0.00000000	    -63.41766617	      2.29985753	     -3.16589925
      6.63000000	     36.30049318	      2.15350168	      6.59102980	      1.61400693	      0.67735322	     -0.28063018	    -12.50054604	     -2.69189091	    -16.23363924	    -56.58051043	     12.10702179	     -5.51380999	      0.00000000	    -33.29681327	      0.40403737	     -1.37975433	    -19.86354243	     21.62927104	     10.45253303	      0.00000000	    -63.43114347	      2.36908904	     -3.34519348
      6.63500000	     36.06166753	      2.31332579	      6.69828355	      1.61861655	      0.67748776	     -0.28016727	    -11.95805751	     -2.72097489	    -16.12282971	    -54.84682363	     12.34721078	     -5.46886225	      0.00000000	    -33.70036291	      0.43133971	     -1.38609563	    -19.41727064	     21.56156875	     10.41848329	      0.00000000	    -63.31944856	      2.27194549	     -3.47386275
      6.64000000	     36.25352179	      2.44791637	      7.12662547	      1.62333287	      0.67794005	     -0.27995064	    -12.15874419	     -2.58214557	    -16.38168490	    -52.70770416	     12.61667071	     -5.14297970	      0.00000000	    -34.61219708	      0.16523017	     -1.29024325	    -18.88755831	     21.53008841	     10.56554283	      0.00000000	    -63.60228362	      2.49758678	     -3.76043173
      6.64500000	     36.03678509	      2.57654070	      7.28141296	      1.62802191	      0.67800064	     -0.27956464	    -11.78712482	     -2.56954294	    -16.30673629	    -50.70014573	     12.81916763	     -4.95315609	      0.00000000	    -35.03904385	      0.12574835	     -1.33056781	    -18.45149838	     21.50298781	     10.58090196	      0.00000000	    -63.50114257	      2.47583549	     -3.91311603
      6.65000000	     36.01911527	      2.76380230	      7.56230376	      1.63276423	      0.67815208	     -0.27929267	    -11.79373933	     -2.57148830	    -16.45533376	    -48.46868523	     13.02268823	     -4.81061599	      0.00000000	    -35.70824863	      0.02481516	     -1.28874161	    -17.97531828	     21.49640893	     10.69096369	      0.00000000	    -63.57611969	      2.54390260	     -4.13293074
      6.65500000	     35.72812314	      2.97348160	      7.61599022	      1.63743174	      0.67802248	     -0.27884055	    -11.41462668	     -2.68237348	    -16.29512463	    -46.31521539	     13.19267661	     -4.78852879	      0.00000000	    -36.04024789	      0.13274894	     -1.33759523	    -17.58774827	     21.39477315	     10.63185803	      0.00000000	    -63.41218137	      2.39042256	     -4.29528693
      6.66000000	     35.85676311	      3.18508133	      8.00678167	      1.64224472	      0.67818491	     -0.27865035	    -11.78087756	     -2.65270854	    -16.60187872	    -43.76549952	     13.32447085	     -4.59688578	      0.00000000	    -36.87492338	     -0.05074138	     -1.19415919	    -17.10853549	     21.37581713	     10.77388693	      0.00000000	    -63.62024895	      2.54389269	     -4.62693012
      6.66500000	     35.63523399	      3.37162282	      8.14638195	      1.64706888	      0.67800502	     -0.27833996	    -11.66752227	     -2.72713072	    -16.60519534	    -41.31758357	     13.45041322	     -4.38713727	      0.00000000	    -37.29956204	     -0.03571065	     -1.22754266	    -16.70938908	     21.37590992	     10.83384378	      0.00000000	    -63.48415698	      2.49989319	     -4.83340034
      6.67000000	     35.54335623	      3.61054195	      8.37091141	      1.65191935	      0.67786464	     -0.27807400	    -11.82470936	     -2.81287082	    -16.78533067	    -38.69181636	     13.58518584	     -4.18395685	      0.00000000	    -37.87081261	     -0.05971963	     -1.17315451	    -16.30673703	     21.35221314	     10.93764649	      0.00000000	    -63.47343872	      2.49648032	     -5.13002314
      6.67500000	     35.49136153	      3.90192998	      8.64105338	      1.65675728	      0.67767930	     -0.27780952	    -12.11503125	     -2.92623403	    -17.06279607	    -35.94438943	     13.78595942	     -3.94659429	      0.00000000	    -38.46555628	     -0.08579870	     -1.06903531	    -15.94833935	     21.34036700	     11.03293055	      0.00000000	    -63.51355335	      2.48511581	     -5.37788544
      6.68000000	     35.12127003	      4.16178232	      8.58070014	      1.66158936	      0.67717463	     -0.27733767	    -11.92085285	     -3.14512927	    -16.92407025	    -33.34082330	     13.89818230	     -3.83540464	      0.00000000	    -38.70620696	      0.14289735	     -1.14331971	    -15.63224564	     21.27573636	     10.99708593	      0.00000000	    -63.24501240	      2.20937153	     -5.52468336
      6.68500000	     35.22495175	      4.47636196	      9.04356999	      1.66658900	      0.67701514	     -0.27722832	    -12.63529184	     -3.20804536	    -17.61314976	    -30.25903133	     14.11645692	     -3.18246252	      0.00000000	    -39.47072594	     -0.04604622	     -0.92729214	    -15.29482529	     21.34911385	     11.30006823	      0.00000000	    -63.40000022	      2.36110692	     -5.92435153
      6.69000000	     35.13774598	      4.77176531	      9.25381670	      1.67157917	      0.67663026	     -0.27695566	    -13.05356182	     -3.33369890	    -18.00572611	    -27.25987186	     14.23040620	     -2.65786547	      0.00000000	    -40.02203830	     -0.04103159	     -0.80841287	    -14.98843550	     21.34175819	     11.38723839	      0.00000000	    -63.36997302	      2.31751403	     -6.24983018
      6.69500000	     35.05479285	      5.10360742	      9.45685542	      1.67657751	      0.67618517	     -0.27660896	    -13.52644324	     -3.47480522	    -18.44422412	    -24.19972528	     14.31568829	     -2.06061086	      0.00000000	    -40.56314247	     -0.01911540	     -0.66098748	    -14.72160852	     21.33668100	     11.51980225	      0.00000000	    -63.34976890	      2.23628304	     -6.61722269
      6.70000000	     34.93993247	      5.43681082	      9.63432834	      1.68165371	      0.67564221	     -0.27618630	    -14.00271770	     -3.61324478	    -18.95071569	    -21.10098322	     14.42946253	     -1.30553913	      0.00000000	    -41.06447430	      0.00869413	     -0.54494252	    -14.48360874	     21.37860298	     11.69573293	      0.00000000	    -63.29157476	      2.11400571	     -6.94199371
      6.70500000	     34.80328331	      5.77804875	      9.77201534	      1.68677386	      0.67501393	     -0.27568756	    -14.47226955	     -3.75073860	    -19.43934460	    -17.99602647	     14.50433197	     -0.45071070	      0.00000000	    -41.52946489	      0.06068961	     -0.42597414	    -14.28700255	     21.42052541	     11.90669180	      0.00000000	    -63.20614817	      1.94206493	     -7.24695224
      6.71000000	     34.50280799	      6.04292081	      9.72715635	      1.69195817	      0.67417217	     -0.27502801	    -14.67724741	     -3.88834956	    -19.74970140	    -15.00888828	     14.52853398	      0.49222174	      0.00000000	    -41.80326766	      0.19868335	     -0.50098243	    -14.13327163	     21.54036855	     12.15175649	      0.00000000	    -62.95057104	      1.65070488	     -7.42536291
      6.71500000	     34.42416893	      6.47037806	      9.88355770	      1.69717877	      0.67343369	     -0.27430505	    -15.27799474	     -4.02915005	    -20.34664185	    -11.93191994	     14.58565842	      1.48308945	      0.00000000	    -42.31268134	      0.25177366	     -0.29710761	    -14.00657930	     21.59494787	     12.41524298	      0.00000000	    -62.92969717	      1.39044798	     -7.74714899
      6.72000000	     34.17050075	      6.78531325	      9.80325733	      1.70242892	      0.67248222	     -0.27342771	    -15.53757066	     -4.16434393	    -20.54457455	     -9.08907718	     14.47644930	      2.43586324	      0.00000000	    -42.61165089	      0.41413208	     -0.29107495	    -13.92871705	     21.68427157	     12.67296513	      0.00000000	    -62.72343599	      1.02229402	     -8.01738068
      6.72500000	     33.94993488	      7.15097930	      9.73134471	      1.70770663	      0.67149220	     -0.27244803	    -15.83152597	     -4.32386232	    -20.71103206	     -6.37393676	     14.36969821	      3.33713159	      0.00000000	    -42.92916415	      0.58693952	     -0.21926220	    -13.89846420	     21.75228090	     12.94416464	      0.00000000	    -62.56005212	      0.60301961	     -8.27106401
      6.73000000	     33.74010971	      7.51961359	      9.65450184	      1.71301471	      0.67044861	     -0.27140289	    -16.10504285	     -4.48209824	    -20.78358275	     -3.83462249	     14.23938146	      4.15675641	      0.00000000	    -43.23666680	      0.75129155	     -0.12088974	    -13.91677767	     21.84260212	     13.21929299	      0.00000000	    -62.40933555	      0.16445082	     -8.48729619
      6.73500000	     33.54576546	      7.88031667	      9.57863910	      1.71835086	      0.66938154	     -0.27033422	    -16.35476847	     -4.63687832	    -20.72461457	     -1.50183190	     14.05849452	      4.82055099	      0.00000000	    -43.53575278	      0.90023882	      0.03307373	    -13.98859883	     21.91869752	     13.45853922	      0.00000000	    -62.27544947	     -0.27480437	     -8.63995372
      6.74000000	     33.29580819	      8.19209912	      9.39880409	      1.72368923	      0.66823545	     -0.26922233	    -16.43052535	     -4.82386367	    -20.40319157	      0.52769160	     13.87351576	      5.36886346	      0.00000000	    -43.75031246	      1.09626441	      0.09216671	    -14.10668744	     22.00156639	     13.71536058	      0.00000000	    -62.08285851	     -0.74822300	     -8.80842195
